<svg xmlns="http://www.w3.org/2000/svg" viewBox="0 0 32 32" width="32" height="32" fill="none">
  <!-- Document body -->
  <rect x="7" y="5" width="14" height="18" rx="2" fill="#2563eb"/>

  <!-- Document fold corner (top-right) -->
  <path d="M17 5 L21 9 L17 9 Z" fill="#1d4ed8"/>

  <!-- Document lines (content lines) -->
  <rect x="9.5" y="12" width="7" height="1.5" rx="0.75" fill="#ffffff" opacity="0.85"/>
  <rect x="9.5" y="15" width="9" height="1.5" rx="0.75" fill="#ffffff" opacity="0.85"/>
  <rect x="9.5" y="18" width="5" height="1.5" rx="0.75" fill="#ffffff" opacity="0.85"/>

  <!-- AI Sparkle 1 (top-right, large) -->
  <path d="M23 7 L23.6 9.4 L26 10 L23.6 10.6 L23 13 L22.4 10.6 L20 10 L22.4 9.4 Z" fill="#2563eb"/>

  <!-- AI Sparkle 2 (bottom-right, small) -->
  <path d="M24.5 18 L24.9 19.6 L26.5 20 L24.9 20.4 L24.5 22 L24.1 20.4 L22.5 20 L24.1 19.6 Z" fill="#2563eb" opacity="0.7"/>

  <!-- AI Sparkle 3 (tiny dot accent) -->
  <circle cx="25.5" cy="15" r="1" fill="#2563eb" opacity="0.5"/>
</svg>
